<?xml version="1.0" encoding="UTF-8"?>
<svg id="Layer_2" data-name="Layer 2" xmlns="http://www.w3.org/2000/svg" viewBox="0 0 331.71 125.71">
  <defs>
    <style>
      .cls-1 {
        fill: #2e3192;
      }

      .cls-2 {
        fill: #03b4a4;
      }
    </style>
  </defs>
  <g id="Layer_1-2" data-name="Layer 1">
    <g>
      <path class="cls-1" d="M289.13,125.71c-23.48,0-42.57-19.1-42.57-42.57s19.1-42.57,42.57-42.57,42.57,19.1,42.57,42.57-19.1,42.57-42.57,42.57M289.13,64.84c-10.09,0-18.3,8.21-18.3,18.3s8.21,18.3,18.3,18.3,18.3-8.21,18.3-18.3-8.21-18.3-18.3-18.3"/>
      <rect class="cls-1" x="230.15" y="101.44" width="57.67" height="24.27"/>
      <polygon class="cls-1" points="154.26 125.71 96.61 125.71 96.61 101.44 129.99 101.44 129.99 61.56 154.26 61.56 154.26 125.71"/>
      <path class="cls-2" d="M303.59,14.06c0,7.77,6.29,14.06,14.06,14.06s14.06-6.29,14.06-14.06-6.29-14.06-14.06-14.06-14.06,6.29-14.06,14.06"/>
      <path class="cls-2" d="M277.92,14.06c0,7.77,6.29,14.06,14.06,14.06s14.06-6.29,14.06-14.06-6.29-14.06-14.06-14.06-14.06,6.29-14.06,14.06"/>
      <path class="cls-2" d="M25.67,61.91c0,7.77,6.29,14.06,14.06,14.06s14.06-6.29,14.06-14.06-6.29-14.06-14.06-14.06-14.06,6.29-14.06,14.06"/>
      <path class="cls-2" d="M0,61.91c0,7.77,6.29,14.06,14.06,14.06s14.06-6.29,14.06-14.06-6.29-14.06-14.06-14.06S0,54.14,0,61.91"/>
      <polygon class="cls-1" points="59.43 125.71 0 125.71 0 82.69 24.27 82.69 24.27 101.44 59.43 101.44 59.43 125.71"/>
      <rect class="cls-1" x="65.67" y="40.56" width="24.27" height="85.15"/>
      <path class="cls-2" d="M196.35,125.71c-20.87,0-38.96-15.54-42.09-36.14l24-3.64c1.34,8.84,9.12,15.51,18.09,15.51,10.09,0,18.3-8.21,18.3-18.3s-8.21-18.3-18.3-18.3c-3.05,0-5.94.72-8.6,2.14l-11.43-21.41c6.13-3.27,13.06-5,20.04-5,23.47,0,42.57,19.1,42.57,42.57s-19.1,42.57-42.57,42.57"/>
    </g>
  </g>
</svg>