<?xml version="1.0" encoding="UTF-8"?>
<svg id="Layer_2" data-name="Layer 2" xmlns="http://www.w3.org/2000/svg" viewBox="0 0 281.24 106.58">
  <defs>
    <style>
      .cls-1 {
        fill: #949d91;
      }

      .cls-2 {
        fill: #50c1b7;
      }

      .cls-3 {
        fill: #fbad1e;
      }

      .cls-4 {
        fill: #1d71b8;
      }

      .cls-5 {
        fill: #ef485c;
      }
    </style>
  </defs>
  <g id="Layer_1-2" data-name="Layer 1">
    <g>
      <path class="cls-4" d="M245.14,106.58c-19.9,0-36.1-16.19-36.1-36.1s16.19-36.1,36.1-36.1,36.1,16.19,36.1,36.1-16.19,36.1-36.1,36.1M245.14,54.97c-8.56,0-15.52,6.96-15.52,15.52s6.96,15.52,15.52,15.52,15.52-6.96,15.52-15.52-6.96-15.52-15.52-15.52"/>
      <path class="cls-4" d="M244.03,106.58h-28.32c-11.37,0-20.58-9.21-20.58-20.58h48.9v20.58Z"/>
      <polygon class="cls-3" points="130.79 106.58 81.91 106.58 81.91 86 110.21 86 110.21 52.2 130.79 52.2 130.79 106.58"/>
      <path class="cls-4" d="M257.4,11.92c0,6.58,5.34,11.92,11.92,11.92s11.92-5.34,11.92-11.92-5.34-11.92-11.92-11.92-11.92,5.34-11.92,11.92"/>
      <path class="cls-4" d="M235.63,11.92c0,6.58,5.34,11.92,11.92,11.92s11.92-5.34,11.92-11.92-5.34-11.92-11.92-11.92-11.92,5.34-11.92,11.92"/>
      <path class="cls-2" d="M21.77,52.49c0,6.58,5.34,11.92,11.92,11.92s11.92-5.34,11.92-11.92-5.34-11.92-11.92-11.92-11.92,5.34-11.92,11.92"/>
      <path class="cls-2" d="M0,52.49C0,59.07,5.34,64.41,11.92,64.41s11.92-5.34,11.92-11.92-5.34-11.92-11.92-11.92S0,45.9,0,52.49"/>
      <polygon class="cls-2" points="50.39 106.58 0 106.58 0 70.11 20.58 70.11 20.58 86 50.39 86 50.39 106.58"/>
      <rect class="cls-1" x="55.68" y="34.39" width="20.58" height="72.19"/>
      <path class="cls-5" d="M166.48,106.58c-17.69,0-33.03-13.17-35.68-30.64l20.35-3.09c1.14,7.5,7.73,13.15,15.34,13.15,8.55,0,15.52-6.96,15.52-15.52s-6.96-15.52-15.52-15.52c-2.58,0-5.04.61-7.29,1.82l-9.7-18.15c5.2-2.77,11.07-4.24,16.99-4.24,19.9,0,36.1,16.19,36.1,36.1s-16.19,36.1-36.1,36.1"/>
    </g>
  </g>
</svg>