<?xml version="1.0" encoding="UTF-8"?>
<svg id="Layer_2" data-name="Layer 2" xmlns="http://www.w3.org/2000/svg" viewBox="0 0 179.3 208.22">
  <defs>
    <style>
      .cls-1 {
        fill: #2e3192;
      }

      .cls-2 {
        fill: #03b4a4;
      }
    </style>
  </defs>
  <g id="Layer_1-2" data-name="Layer 1">
    <path class="cls-1" d="M136.28,124.09c-23.72,0-43.02-19.3-43.02-43.02s19.3-43.02,43.02-43.02,43.02,19.3,43.02,43.02-19.3,43.02-43.02,43.02M136.28,62.58c-10.2,0-18.49,8.3-18.49,18.49s8.29,18.49,18.49,18.49,18.49-8.29,18.49-18.49-8.3-18.49-18.49-18.49"/>
    <rect class="cls-1" x="76.68" y="99.57" width="58.28" height="24.53"/>
    <polygon class="cls-1" points="179.3 208.22 113.2 208.22 113.2 183.7 154.77 183.7 154.77 145.57 179.3 145.57 179.3 208.22"/>
    <path class="cls-2" d="M150.89,14.21c0,7.85,6.36,14.21,14.21,14.21s14.21-6.36,14.21-14.21-6.36-14.21-14.21-14.21-14.21,6.36-14.21,14.21"/>
    <path class="cls-2" d="M124.95,14.21c0,7.85,6.36,14.21,14.21,14.21s14.21-6.36,14.21-14.21-6.36-14.21-14.21-14.21-14.21,6.36-14.21,14.21"/>
    <path class="cls-2" d="M25.94,143.75c0,7.85,6.36,14.21,14.21,14.21s14.21-6.36,14.21-14.21-6.36-14.21-14.21-14.21-14.21,6.36-14.21,14.21"/>
    <path class="cls-2" d="M0,143.75c0,7.85,6.36,14.21,14.21,14.21s14.21-6.36,14.21-14.21-6.36-14.21-14.21-14.21S0,135.91,0,143.75"/>
    <polygon class="cls-1" points="60.06 208.22 0 208.22 0 164.75 24.53 164.75 24.53 183.7 60.06 183.7 60.06 208.22"/>
    <rect class="cls-1" x="76.72" y="135.65" width="24.53" height="72.58"/>
    <path class="cls-2" d="M42.53,124.09c-21.08,0-39.37-15.7-42.53-36.52l24.25-3.68c1.36,8.94,9.22,15.68,18.28,15.68,10.2,0,18.49-8.3,18.49-18.49s-8.3-18.49-18.49-18.49c-3.08,0-6,.73-8.69,2.16l-11.56-21.64c6.19-3.31,13.19-5.05,20.25-5.05,23.72,0,43.02,19.3,43.02,43.02s-19.3,43.02-43.02,43.02"/>
  </g>
</svg>